<?xml version="1.0" encoding="utf-8"?>
<!-- Generator: Adobe Illustrator 23.0.3, SVG Export Plug-In . SVG Version: 6.00 Build 0)  -->
<svg version="1.1" id="Layer_1" xmlns="http://www.w3.org/2000/svg" xmlns:xlink="http://www.w3.org/1999/xlink" x="0px" y="0px"
	 viewBox="0 0 437 68" style="enable-background:new 0 0 437 68;" xml:space="preserve">
<style type="text/css">
	.st0{fill-rule:evenodd;clip-rule:evenodd;}
	.st1{fill-rule:evenodd;clip-rule:evenodd;fill:#0029FF;}
</style>
<path d="M103.7,66.6c-8.1,0-18.2-2.3-23.6-8.4c-5.3-6.2-7.9-13.7-7.9-22.5v-21c0-1.9,0-3.3,0.1-4.2c0.2-0.9,0.5-1.9,1.1-3.1
	c1.1-2.2,4.2-3.2,9.4-3.2c5.6,0,8.9,1.5,9.9,4.6c0.5,1.3,0.7,3.3,0.7,6.1v21c0,3.3,0.9,5.9,2.8,7.7c1.9,1.8,4.4,2.8,7.6,2.8
	c3.2,0,5.8-1,7.7-2.9c2-1.9,3-4.4,3-7.6V14.5c0-1.8,0-3.2,0.1-4.1c0.2-1,0.6-2,1.2-3.2c1-2.1,4.1-3.1,9.3-3.1c5.1,0,8.1,1.1,9.3,3.2
	c0.6,1.2,0.9,2.3,1,3.2c0.2,0.9,0.2,2.2,0.2,4.1v21.2c0,9.2-3,16.9-8.5,22.4C121.4,63.7,111.1,66.3,103.7,66.6z"/>
<path d="M46.9,34.8l13.3,13.5c2.9,2.9,4.3,5.4,4.3,7.5c0,2-1.4,4.4-4.3,7.3c-2.9,2.8-5.3,4.2-7.3,4.2s-4.4-1.4-7.3-4.3L32.4,49.6
	L19,63c-2.9,2.9-5.3,4.3-7.3,4.3c-1.9,0-4.4-1.4-7.3-4.2C1.5,60.2,0,57.7,0,55.7c0-2.1,1.4-4.6,4.3-7.5l13.3-13.5L4.4,21.4
	C1.5,18.5,0,16,0,14c0-2.1,1.4-4.6,4.3-7.5c3-2.9,5.4-4.3,7.3-4.3c2,0,4.4,1.4,7.3,4.3L32.4,20L45.6,6.6c2.9-2.9,5.3-4.3,7.3-4.3
	s4.4,1.4,7.3,4.3c2.9,2.9,4.3,5.4,4.3,7.5c0,2-1.4,4.4-4.3,7.3L46.9,34.8z"/>
<path class="st0" d="M190.4,9.2c-5.1-4.5-11.3-6.3-18.3-6.3c-8.1,0-14.7,3-20.2,8.5c-5.5,5.5-8.5,13.2-8.5,22.4V55
	c0,1.8,0.1,3.2,0.2,4.1c0.1,1,0.4,2,1,3.2c1.1,2.2,4.2,3.2,9.3,3.2c5.1,0,8.2-1,9.3-3.1c0.6-1.2,1-2.3,1.2-3.2
	c0.1-0.9,0.1-2.2,0.1-4.1V33.8c0-3.1,1-5.7,3-7.6c1.9-1.9,4.3-1.9,4.7-1.9c0,0,0,0,0,0c0,0,0,0,0,0c0.4,0,2.7,0,4.5,1.8
	c1.8,1.8,2.8,4.4,2.8,7.7v21c0,0,0,0.1,0,0.1v0c0,1.8,0.1,3.2,0.2,4.1c0.1,1,0.4,2,1,3.2c1.1,2.2,4.2,3.2,9.3,3.2c0,0,0,0,0.1,0
	c0,0,0,0,0.1,0c5.1,0,8.3-1.1,9.4-3.2c0.6-1.2,0.9-2.2,1.1-3.1c0.1-0.9,0.1-2.3,0.1-4.2v-21c0-0.6,0-1.1,0-1.7
	c0.3-2.4,1.3-4.4,2.9-6c1.9-1.9,4.3-1.9,4.7-1.9c0,0,0,0,0,0c0,0,0,0,0,0c0.4,0,2.7,0,4.5,1.8c1.8,1.8,2.8,4.4,2.8,7.7v21
	c0,2.8,0.2,4.9,0.7,6.1c1,3,4.2,4.6,9.9,4.6c5.1,0,8.3-1.1,9.4-3.2c0.6-1.2,0.9-2.2,1.1-3.1c0.1-0.9,0.1-2.3,0.1-4.2v-21
	c0-8.8-2.6-16.3-7.9-22.5c-5.4-6.1-12.5-8.5-20.6-8.5C201.3,2.9,195.4,5.1,190.4,9.2z"/>
<path class="st0" d="M290.6,9.2c-5.1-4.5-11.3-6.3-18.3-6.3c-8.1,0-14.7,3-20.2,8.5c-5.5,5.5-8.5,13.2-8.5,22.4V55
	c0,1.8,0.1,3.2,0.2,4.1c0.1,1,0.4,2,1,3.2c1.1,2.2,4.2,3.2,9.3,3.2c5.1,0,8.2-1,9.3-3.1c0.6-1.2,1-2.3,1.2-3.2
	c0.1-0.9,0.1-2.2,0.1-4.1V33.8c0-3.1,1-5.7,3-7.6c1.9-1.9,4.3-1.9,4.7-1.9c0,0,0,0,0,0c0,0,0,0,0,0c0.4,0,2.7,0,4.5,1.8
	c1.8,1.8,2.8,4.4,2.8,7.6c0,0,0,0.1,0,0.1V55c0,1.8,0.1,3.2,0.2,4.1c0.1,1,0.4,2,1,3.2c1.1,2.2,4.2,3.2,9.3,3.2c0,0,0,0,0.1,0
	c0,0,0,0,0.1,0c5.1,0,8.3-1.1,9.4-3.2c0.6-1.2,0.9-2.2,1.1-3.1c0.1-0.9,0.1-2.3,0.1-4.2v-21c0-0.6,0-1.1,0-1.7
	c0.3-2.4,1.3-4.4,2.9-6c1.9-1.9,4.3-1.9,4.7-1.9c0,0,0,0,0,0c0,0,0,0,0,0c0.4,0,2.7,0,4.5,1.8c1.8,1.8,2.8,4.4,2.8,7.7v21
	c0,2.8,0.2,4.9,0.7,6.1c1,3,4.2,4.6,9.9,4.6c5.1,0,8.3-1.1,9.4-3.2c0.6-1.2,0.9-2.2,1.1-3.1c0.1-0.9,0.1-2.3,0.1-4.2v-21
	c0-8.8-2.6-16.3-7.9-22.5c-5.4-6.1-12.5-8.5-20.6-8.5C301.5,2.9,295.6,5.1,290.6,9.2z"/>
<path class="st1" d="M428.5,4.2c4.5,4.1,4.9,11.2,0.8,15.7l-37.7,41.5c-2.1,2.3-5,3.6-8.1,3.6c-3.1,0-6.1-1.2-8.2-3.5l-20.2-21.2
	c-4.2-4.4-4.1-11.5,0.4-15.7c4.4-4.2,11.5-4.1,15.7,0.4l12,12.6L412.8,5C416.9,0.5,423.9,0.1,428.5,4.2z"/>
</svg>
