<?xml version="1.0" standalone="no"?>
<!DOCTYPE svg PUBLIC "-//W3C//DTD SVG 20010904//EN"
 "http://www.w3.org/TR/2001/REC-SVG-20010904/DTD/svg10.dtd">
<svg version="1.0" xmlns="http://www.w3.org/2000/svg"
 width="1024.000000pt" height="1024.000000pt" viewBox="0 0 1024.000000 1024.000000"
 preserveAspectRatio="xMidYMid meet">
<metadata>
Created by potrace 1.11, written by Peter Selinger 2001-2013
</metadata>
<g transform="translate(0.000000,1024.000000) scale(0.100000,-0.100000)"
fill="#000000" stroke="none">
<path d="M0 5120 l0 -5120 5120 0 5120 0 0 5120 0 5120 -5120 0 -5120 0 0
-5120z m8874 1694 c156 -38 321 -172 389 -315 46 -97 61 -164 60 -274 -1 -107
-32 -213 -91 -305 -43 -68 -2144 -2355 -2215 -2411 -106 -84 -229 -124 -382
-123 -81 0 -114 5 -178 27 -149 52 -166 67 -724 645 -726 752 -704 727 -745
813 -45 93 -61 163 -62 264 -1 166 55 298 178 421 124 124 252 177 426 178
134 1 256 -39 363 -116 26 -19 201 -194 389 -389 187 -195 346 -354 352 -354
6 0 385 407 842 903 458 497 854 920 880 939 156 112 327 144 518 97z m-6777
-119 c30 -13 78 -42 107 -62 28 -21 234 -216 457 -435 224 -219 410 -398 413
-398 4 0 186 179 404 399 426 428 489 481 613 516 80 22 128 15 227 -35 144
-73 341 -267 420 -415 34 -64 37 -77 37 -150 0 -155 -49 -218 -585 -750 l-352
-350 400 -395 c406 -401 472 -477 518 -588 59 -144 2 -287 -195 -482 -256
-255 -408 -288 -631 -137 -25 17 -226 210 -447 429 -222 219 -406 398 -411
398 -4 0 -185 -175 -402 -388 -217 -213 -420 -406 -450 -429 -130 -95 -235
-123 -339 -88 -84 27 -199 110 -312 224 -239 241 -268 373 -129 582 26 39 198
219 449 472 l405 407 -410 413 c-226 226 -426 434 -443 460 -112 166 -112 281
0 443 74 108 254 275 366 341 100 58 190 64 290 18z"/>
</g>
</svg>
