<svg width="384" height="170" viewBox="0 0 384 170" fill="none" xmlns="http://www.w3.org/2000/svg">
<path fill-rule="evenodd" clip-rule="evenodd" d="M375.927 48.8811C386.844 37.0174 385.951 18.6622 373.936 7.88368C361.922 -2.89486 343.332 -2.01515 332.419 9.84857L254.132 94.9323L222.482 62.1175C211.287 50.5104 192.682 50.0625 180.927 61.117C169.172 72.1715 168.718 90.5422 179.913 102.149L233.355 157.557C238.986 163.394 246.821 166.657 254.985 166.562C263.148 166.467 270.904 163.024 276.394 157.057L375.927 48.8811ZM154.347 121.73L120.247 87.7549L154.347 53.7804C161.72 46.5 165.407 40.3318 165.407 35.2762C165.407 30.0182 161.72 23.7489 154.347 16.4687C146.974 9.18834 140.728 5.54818 135.607 5.54818C130.487 5.54818 124.241 9.18834 116.867 16.4687L83.0745 50.4434L48.9743 16.4687C41.6015 9.18834 35.3548 5.54818 30.2347 5.54818C25.3193 5.54818 19.0727 9.18834 11.4948 16.4687C4.12182 23.7489 0.435303 30.0182 0.435303 35.2762C0.435303 40.3318 4.12182 46.5 11.4948 53.7804L45.5951 87.7549L11.4948 121.73C4.12182 129.01 0.435303 135.279 0.435303 140.537C0.435303 145.593 4.12182 151.761 11.4948 159.041C19.0727 166.119 25.3193 169.658 30.2347 169.658C35.3548 169.658 41.6015 166.018 48.9743 158.738L83.0745 125.067L116.867 158.738C124.241 166.018 130.487 169.658 135.607 169.658C140.728 169.658 146.974 166.119 154.347 159.041C161.72 151.761 165.407 145.593 165.407 140.537C165.407 135.279 161.72 129.01 154.347 121.73Z" fill="white"/>
</svg>
