<svg width="152" height="67" viewBox="0 0 152 67" fill="none" xmlns="http://www.w3.org/2000/svg">
<path d="M47.2432 34.5858L60.6829 47.976C63.5888 50.8454 65.0416 53.3162 65.0416 55.3885C65.0416 57.3811 63.5888 59.8121 60.6829 62.6814C57.7769 65.471 55.3151 66.8658 53.2971 66.8658C51.2791 66.8658 48.8172 65.4312 45.9113 62.5619L32.5927 49.2912L19.153 62.5619C16.2472 65.4312 13.7853 66.8658 11.7673 66.8658C9.83004 66.8658 7.36811 65.471 4.38151 62.6814C1.47564 59.8121 0.0227051 57.3811 0.0227051 55.3885C0.0227051 53.3162 1.47564 50.8454 4.38151 47.976L17.8212 34.5858L4.38151 21.1957C1.47564 18.3263 0.0227051 15.8953 0.0227051 13.9028C0.0227051 11.8305 1.47564 9.35961 4.38151 6.49029C7.36811 3.62095 9.83004 2.18628 11.7673 2.18628C13.7853 2.18628 16.2472 3.62095 19.153 6.49029L32.5927 19.8805L45.9113 6.49029C48.8172 3.62095 51.2791 2.18628 53.2971 2.18628C55.3151 2.18628 57.7769 3.62095 60.6829 6.49029C63.5888 9.35961 65.0416 11.8305 65.0416 13.9028C65.0416 15.8953 63.5888 18.3263 60.6829 21.1957L47.2432 34.5858Z" fill="black"/>
<path fill-rule="evenodd" clip-rule="evenodd" d="M147.228 3.10671C151.963 7.35476 152.315 14.589 148.012 19.2647L108.784 61.8994C106.621 64.251 103.564 65.6079 100.347 65.6453C97.129 65.6827 94.0408 64.397 91.8218 62.0963L70.7591 40.2589C66.3469 35.6843 66.5257 28.444 71.1586 24.0872C75.7913 19.7303 83.124 19.9069 87.5363 24.4815L100.01 37.4145L130.865 3.88111C135.166 -0.794648 142.493 -1.14136 147.228 3.10671Z" fill="#0029FF"/>
</svg>
