<svg width="126" height="20" viewBox="0 0 126 20" fill="none" xmlns="http://www.w3.org/2000/svg">
<g clip-path="url(#clip0_288_28)">
<path d="M12.4218 10.479L15.9573 14.064C16.7217 14.8322 17.1039 15.4937 17.1039 16.0485C17.1039 16.582 16.7217 17.2328 15.9573 18.001C15.1928 18.7479 14.5452 19.1214 14.0143 19.1214C13.4835 19.1214 12.8359 18.7372 12.0714 17.969L8.56785 14.4161L5.03241 17.969C4.26802 18.7372 3.62037 19.1214 3.08953 19.1214C2.57991 19.1214 1.93228 18.7479 1.14663 18.001C0.382209 17.2328 0 16.582 0 16.0485C0 15.4937 0.382209 14.8322 1.14663 14.064L4.68208 10.479L1.14663 6.89407C0.382209 6.12587 0 5.475 0 4.94155C0 4.38672 0.382209 3.7252 1.14663 2.957C1.93228 2.18879 2.57991 1.80469 3.08953 1.80469C3.62037 1.80469 4.26802 2.18879 5.03241 2.957L8.56785 6.54196L12.0714 2.957C12.8359 2.18879 13.4835 1.80469 14.0143 1.80469C14.5452 1.80469 15.1928 2.18879 15.9573 2.957C16.7217 3.7252 17.1039 4.38672 17.1039 4.94155C17.1039 5.475 16.7217 6.12587 15.9573 6.89407L12.4218 10.479Z" fill="black"/>
<path d="M29.1383 3.85303C29.2657 2.65804 30.1045 2.06055 31.6545 2.06055C32.4827 2.06055 33.0984 2.12457 33.5019 2.2526C33.9053 2.38063 34.1814 2.60469 34.33 2.92478C34.4999 3.24487 34.5954 3.53295 34.6167 3.78901C34.6591 4.02374 34.6803 4.38651 34.6803 4.87729V16.0803C34.6803 16.5711 34.6591 16.9446 34.6167 17.2006C34.5954 17.4354 34.5105 17.7128 34.3619 18.0328C34.0646 18.5877 33.332 18.8651 32.1641 18.8651C31.0175 18.8651 30.2425 18.7264 29.839 18.449C29.4569 18.1502 29.2339 17.7234 29.1702 17.1686C28.3845 18.2996 27.068 18.8651 25.2207 18.8651C23.3946 18.8651 21.6959 18.0222 20.1245 16.3364C18.5533 14.6506 17.7676 12.6981 17.7676 10.4788C17.7676 8.2382 18.5533 6.28568 20.1245 4.62124C21.7171 2.93545 23.4583 2.09255 25.3481 2.09255C26.07 2.09255 26.7283 2.22059 27.3228 2.47666C27.9174 2.73273 28.3314 2.97813 28.565 3.21286C28.7986 3.42625 28.9897 3.63964 29.1383 3.85303ZM23.3415 10.5108C23.3415 11.215 23.6175 11.8552 24.1696 12.4313C24.7217 12.9861 25.3905 13.2636 26.1762 13.2636C26.9619 13.2636 27.6095 12.9755 28.1191 12.3993C28.65 11.8232 28.9154 11.1937 28.9154 10.5108C28.9154 9.80665 28.6605 9.15578 28.151 8.55832C27.6626 7.96081 26.9937 7.66206 26.1443 7.66206C25.3162 7.66206 24.6367 7.96081 24.1059 8.55832C23.5963 9.15578 23.3415 9.80665 23.3415 10.5108Z" fill="black"/>
<path d="M42.6975 4.30191C43.6956 2.78683 44.8953 2.0293 46.2969 2.0293C48.4624 2.0293 50.0765 2.95755 51.138 4.81404C51.3718 4.49396 51.6477 4.1632 51.9661 3.82178C52.3058 3.45901 52.8367 3.07491 53.5586 2.66947C54.2808 2.24269 55.0239 2.0293 55.7882 2.0293C57.4869 2.0293 58.9098 2.69081 60.0563 4.01383C61.2028 5.31553 61.7763 7.48144 61.7763 10.5116V16.1131C61.7763 16.6039 61.755 16.9773 61.7125 17.2334C61.6912 17.4681 61.5956 17.7455 61.426 18.0656C61.1497 18.6418 60.3322 18.9298 58.9735 18.9298C57.6357 18.9298 56.8182 18.6311 56.5207 18.0336C56.3723 17.7135 56.2767 17.4361 56.2342 17.2014C56.2129 16.9453 56.2023 16.5719 56.2023 16.0811V10.4796C56.2023 8.62308 55.5442 7.69482 54.2276 7.69482C53.4845 7.69482 52.9749 7.94021 52.6986 8.43102C52.4439 8.92183 52.3164 9.61534 52.3164 10.5116V16.1131C52.3164 16.6252 52.2951 16.9987 52.2526 17.2334C52.2318 17.4681 52.1361 17.7455 51.9661 18.0656C51.6689 18.6418 50.8408 18.9298 49.4818 18.9298C48.144 18.9298 47.3265 18.6311 47.0293 18.0336C46.8806 17.7135 46.7849 17.4361 46.7428 17.2014C46.7215 16.9453 46.7109 16.5719 46.7109 16.0811V10.4796C46.7109 8.62308 46.0524 7.69482 44.7359 7.69482C43.4619 7.69482 42.825 8.62308 42.825 10.4796V16.1451C42.825 16.6359 42.8038 17.0093 42.7613 17.2654C42.74 17.5001 42.6444 17.7775 42.4747 18.0976C42.1559 18.6525 41.3278 18.9298 39.9904 18.9298C38.6526 18.9298 37.835 18.6418 37.5377 18.0656C37.3891 17.7455 37.2935 17.4681 37.2511 17.2334C37.2299 16.9987 37.2192 16.6252 37.2192 16.1131V4.84604C37.2192 4.35526 37.2299 3.99249 37.2511 3.75776C37.2935 3.50169 37.3997 3.22429 37.5696 2.92554C37.8881 2.34938 38.642 2.0613 39.831 2.0613C41.02 2.0613 41.795 2.25336 42.1559 2.63746C42.5172 3.02156 42.6975 3.57638 42.6975 4.30191Z" fill="black"/>
<path d="M75.2042 3.85303C75.3318 2.65804 76.1705 2.06055 77.7204 2.06055C78.5486 2.06055 79.1645 2.12457 79.5679 2.2526C79.9714 2.38063 80.2473 2.60469 80.396 2.92478C80.5657 3.24487 80.6613 3.53295 80.6826 3.78901C80.7251 4.02374 80.7463 4.38651 80.7463 4.87729V16.0803C80.7463 16.5711 80.7251 16.9446 80.6826 17.2006C80.6613 17.4354 80.5763 17.7128 80.4279 18.0328C80.1304 18.5877 79.3979 18.8651 78.2301 18.8651C77.0836 18.8651 76.3086 18.7264 75.9048 18.449C75.5227 18.1502 75.2999 17.7234 75.2361 17.1686C74.4505 18.2996 73.134 18.8651 71.2865 18.8651C69.4606 18.8651 67.7619 18.0222 66.1907 16.3364C64.6191 14.6506 63.8335 12.6981 63.8335 10.4788C63.8335 8.2382 64.6191 6.28568 66.1907 4.62124C67.7831 2.93545 69.5244 2.09255 71.414 2.09255C72.1358 2.09255 72.7943 2.22059 73.3886 2.47666C73.9833 2.73273 74.3974 2.97813 74.6312 3.21286C74.8646 3.42625 75.0558 3.63964 75.2042 3.85303ZM69.4075 10.5108C69.4075 11.215 69.6834 11.8552 70.2356 12.4313C70.7878 12.9861 71.4565 13.2636 72.2421 13.2636C73.0277 13.2636 73.6755 12.9755 74.1852 12.3993C74.7158 11.8232 74.9815 11.1937 74.9815 10.5108C74.9815 9.80665 74.7264 9.15578 74.2171 8.55832C73.7287 7.96081 73.0596 7.66206 72.2102 7.66206C71.3821 7.66206 70.7028 7.96081 70.1718 8.55832C69.6621 9.15578 69.4075 9.80665 69.4075 10.5108Z" fill="black"/>
<path d="M92.6175 2.06055C94.7409 2.06055 96.5034 2.8821 97.9046 4.52521C99.3274 6.14698 100.039 8.13151 100.039 10.4788V16.1123C100.039 16.6031 100.017 16.9766 99.9748 17.2326C99.9536 17.4674 99.869 17.7341 99.7202 18.0328C99.423 18.609 98.5949 18.8971 97.2359 18.8971C95.728 18.8971 94.8578 18.5023 94.624 17.7128C94.4965 17.35 94.4331 16.8059 94.4331 16.0803V10.4468C94.4331 9.5719 94.1781 8.88907 93.6684 8.39826C93.1803 7.90745 92.5112 7.66206 91.6619 7.66206C90.8338 7.66206 90.1544 7.91813 89.6235 8.43026C89.1138 8.9424 88.8591 9.61459 88.8591 10.4468V16.1123C88.8591 16.6031 88.8379 16.9766 88.7954 17.2326C88.7741 17.4674 88.6785 17.7341 88.5088 18.0328C88.2326 18.609 87.4151 18.8971 86.056 18.8971C84.7186 18.8971 83.9011 18.609 83.6036 18.0328C83.4552 17.7128 83.3595 17.4354 83.317 17.2006C83.2958 16.9446 83.2852 16.5711 83.2852 16.0803V4.74928C83.2852 4.27981 83.2958 3.92771 83.317 3.69299C83.3595 3.43692 83.4658 3.15951 83.6354 2.86076C83.9326 2.32729 84.7505 2.06055 86.0879 2.06055C87.3832 2.06055 88.1794 2.30595 88.477 2.79674C88.6891 3.15951 88.7954 3.59696 88.7954 4.1091C88.8804 3.95973 89.0713 3.74634 89.3688 3.46893C89.666 3.19152 89.9525 2.96746 90.2288 2.79674C90.9507 2.30595 91.7469 2.06055 92.6175 2.06055Z" fill="black"/>
<path fill-rule="evenodd" clip-rule="evenodd" d="M124.669 1.66265C125.912 2.78554 126.005 4.69774 124.875 5.93368L114.571 17.2033C114.003 17.8248 113.2 18.1835 112.355 18.1934C111.509 18.2033 110.698 17.8634 110.115 17.2553L104.583 11.4831C103.424 10.2739 103.471 8.36002 104.688 7.20839C105.905 6.05675 107.831 6.10343 108.99 7.31264L112.266 10.7312L120.371 1.86735C121.501 0.631411 123.425 0.539765 124.669 1.66265Z" fill="black"/>
</g>
<defs>
<clipPath id="clip0_288_28">
<rect width="126" height="18.2443" fill="white" transform="translate(0 0.876953)"/>
</clipPath>
</defs>
</svg>
